<svg xmlns="http://www.w3.org/2000/svg" version="1.1" xmlns:xlink="http://www.w3.org/1999/xlink" xmlns:svgjs="http://svgjs.dev/svgjs" width="128" height="128" viewBox="0 0 128 128"><g transform="matrix(0.8046875,0,0,0.8046875,12.221578124999994,25.66236654357745)"><svg viewBox="0 0 96 71" data-background-color="#ffffff" preserveAspectRatio="xMidYMid meet" height="94" width="128" xmlns="http://www.w3.org/2000/svg" xmlns:xlink="http://www.w3.org/1999/xlink"><g id="tight-bounds" transform="matrix(1,0,0,1,0.25950000000000273,0.4855828188357947)"><svg viewBox="0 0 95.481 70.02883436232838" height="70.02883436232838" width="95.481"><g><svg viewBox="0 0 95.481 70.02883436232838" height="70.02883436232838" width="95.481"><g><svg viewBox="0 0 95.481 70.02883436232838" height="70.02883436232838" width="95.481"><g id="textblocktransform"><svg viewBox="0 0 95.481 70.02883436232838" height="70.02883436232838" width="95.481" id="textblock"><g><svg viewBox="0 0 95.481 70.02883436232838" height="70.02883436232838" width="95.481"><g><svg viewBox="0 0 95.481 70.02883436232838" height="70.02883436232838" width="95.481"><g><svg xmlns:sketch="http://www.bohemiancoding.com/sketch/ns" xmlns="http://www.w3.org/2000/svg" xmlns:xlink="http://www.w3.org/1999/xlink" version="1.1" x="0" y="0" viewBox="5.012124899939952 17.05 89.98787510006005 66" enable-background="new 0 0 100 100" xml:space="preserve" height="70.02883436232838" width="95.481" class="icon-icon-0" data-fill-palette-color="accent" id="icon-0"><g sketch:type="MSPage" fill="#50a060" data-fill-palette-color="accent"><g sketch:type="MSArtboardGroup" fill="#50a060" data-fill-palette-color="accent"><path sketch:type="MSShapeGroup" d="M75.9 69.7L50.4 79.5 25.8 69.7V48C25.8 47.4 25.5 46.8 24.9 46.5L7.5 36.9 7.4 39.9 51.1 20.2H49.7L91.6 39.4V68.1C91.6 69 92.3 69.8 93.3 69.8 94.2 69.8 95 69.1 95 68.1V38.4C95 37.7 94.6 37.2 94 36.9L51.1 17.2C50.7 17 50.2 17 49.7 17.2L6 36.9C4.7 37.5 4.7 39.2 5.9 39.9L23.4 49.5 22.5 48V70.8C22.5 71.5 22.9 72.1 23.6 72.4L49.9 82.9C50.3 83.1 50.7 83.1 51.1 82.9L78.2 72.4C78.8 72.2 79.3 71.5 79.3 70.8V48C79.3 46.8 78.1 46 77 46.4L50.5 56.8 36.7 50.9C35.9 50.5 34.9 50.9 34.5 51.8S34.5 53.6 35.4 54L49.8 60.1C50.2 60.3 50.7 60.3 51.1 60.1L76 50.9" fill="#50a060" data-fill-palette-color="accent"></path></g></g></svg></g></svg></g></svg></g></svg></g></svg></g><g></g></svg></g><defs></defs></svg><rect width="95.481" height="70.02883436232838" fill="none" stroke="none" visibility="hidden"></rect></g></svg></g></svg>