<svg xmlns="http://www.w3.org/2000/svg" version="1.1" xmlns:xlink="http://www.w3.org/1999/xlink" xmlns:svgjs="http://svgjs.dev/svgjs" width="1500" height="1500" viewBox="0 0 1500 1500"><rect width="1500" height="1500" fill="#ffffff"></rect><g transform="matrix(0.6666666666666666,0,0,0.6666666666666666,249.97714507883666,651.7143573333333)"><svg viewBox="0 0 384 75" data-background-color="#ffffff" preserveAspectRatio="xMidYMid meet" height="292" width="1500" xmlns="http://www.w3.org/2000/svg" xmlns:xlink="http://www.w3.org/1999/xlink"><g id="tight-bounds" transform="matrix(1,0,0,1,0.008776289726711184,0.3668999999999869)"><svg viewBox="0 0 383.9824474205466 74.2662" height="74.2662" width="383.9824474205466"><g><svg viewBox="0 0 383.9824474205466 74.2662" height="74.2662" width="383.9824474205466"><g><svg viewBox="0 0 383.9824474205466 74.2662" height="74.2662" width="383.9824474205466"><g id="textblocktransform"><svg viewBox="0 0 383.9824474205466 74.2662" height="74.2662" width="383.9824474205466" id="textblock"><g><svg viewBox="0 0 383.9824474205466 74.2662" height="74.2662" width="383.9824474205466"><g><svg><g></g><g></g></svg></g><g><svg><g><svg></svg></g><g></g></svg></g><g id="text-0"><svg viewBox="0 0 383.9824474205466 74.2662" height="74.2662" width="383.9824474205466"><g transform="matrix(1,0,0,1,0,0)"><svg width="265.19019999999995" viewBox="3 -39.65 163.88 45.9" height="74.2662" data-palette-color="#01a259"><path d="M17.05-18.3Q20.4-17.55 22.33-15.63 24.25-13.7 24.25-9.9L24.25-9.9Q24.25-4.9 20.88-2.45 17.5 0 11.7 0L11.7 0 3 0 3-34.55 10.55-34.55Q16.5-34.55 19.75-32.3 23-30.05 23-25.75L23-25.75Q23-22.85 21.38-20.95 19.75-19.05 17.05-18.3L17.05-18.3ZM11.2-29.85L9.35-29.85 9.35-20.3 11.5-20.3Q16.55-20.3 16.55-25.2L16.55-25.2Q16.55-27.65 15.28-28.75 14-29.85 11.2-29.85L11.2-29.85ZM11.75-4.8Q14.65-4.8 16.15-6.03 17.65-7.25 17.65-10.15L17.65-10.15Q17.65-13.05 16.25-14.43 14.85-15.8 11.9-15.8L11.9-15.8 9.35-15.8 9.35-4.8 11.75-4.8ZM33.85 0.75Q31.15 0.75 29.57-0.93 28-2.6 28-5.4L28-5.4 28-37.05 34.15-37.7 34.15-5.65Q34.15-5 34.45-4.6 34.75-4.2 35.35-4.2L35.35-4.2Q35.7-4.2 36.02-4.3 36.35-4.4 36.45-4.4L36.45-4.4 37.65-0.2Q35.95 0.75 33.85 0.75L33.85 0.75ZM40.7-26.45L46.85-26.45 46.85 0 40.7 0 40.7-26.45ZM43.75-39.65Q45.4-39.65 46.42-38.6 47.45-37.55 47.45-35.9L47.45-35.9Q47.45-34.3 46.42-33.25 45.4-32.2 43.75-32.2L43.75-32.2Q42.1-32.2 41.07-33.25 40.05-34.3 40.05-35.9L40.05-35.9Q40.05-37.55 41.07-38.6 42.1-39.65 43.75-39.65L43.75-39.65ZM63.69-5L65.84-1.2Q63.39 0.75 60.09 0.75L60.09 0.75Q56.64 0.75 54.84-1.23 53.04-3.2 53.04-6.6L53.04-6.6 53.04-22 49.94-22 49.94-26.45 53.04-26.45 53.04-32.3 59.19-33.05 59.19-26.45 64.19-26.45 63.59-22 59.19-22 59.19-6.6Q59.19-4.2 61.24-4.2L61.24-4.2Q61.89-4.2 62.39-4.38 62.89-4.55 63.69-5L63.69-5ZM67.09-26.45L83.34-26.45 83.34-22 72.79-4.85 83.54-4.85 82.99 0 66.19 0 66.19-4.45 76.74-21.6 67.09-21.6 67.09-26.45ZM104.49-2.1Q107.29-2.05 109.34-1.18 111.39-0.3 113.24 1.4L113.24 1.4 109.24 6.25Q107.09 3.4 104.61 1.98 102.14 0.55 98.39 0.55L98.39 0.55Q92.64 0.55 89.34-3.98 86.04-8.5 86.04-17.25L86.04-17.25Q86.04-26.1 89.36-30.68 92.69-35.25 98.74-35.25L98.74-35.25Q104.79-35.25 108.11-30.75 111.44-26.25 111.44-17.3L111.44-17.3Q111.44-11.1 109.59-7.6 107.74-4.1 104.49-2.1L104.49-2.1ZM92.74-17.25Q92.74-10.1 94.24-7.13 95.74-4.15 98.74-4.15L98.74-4.15Q101.84-4.15 103.31-7.1 104.79-10.05 104.79-17.3L104.79-17.3Q104.79-24.45 103.31-27.45 101.84-30.45 98.74-30.45L98.74-30.45Q95.69-30.45 94.21-27.45 92.74-24.45 92.74-17.25L92.74-17.25ZM134.19-26.45L134.19 0 128.84 0 128.54-3.35Q127.29-1.3 125.74-0.28 124.19 0.75 122.14 0.75L122.14 0.75Q119.24 0.75 117.56-1.3 115.89-3.35 115.89-6.65L115.89-6.65 115.89-26.45 122.04-26.45 122.04-7Q122.04-3.9 124.14-3.9L124.14-3.9Q125.34-3.9 126.29-4.83 127.24-5.75 128.04-7.45L128.04-7.45 128.04-26.45 134.19-26.45ZM139.88-26.45L146.03-26.45 146.03 0 139.88 0 139.88-26.45ZM142.93-39.65Q144.58-39.65 145.61-38.6 146.63-37.55 146.63-35.9L146.63-35.9Q146.63-34.3 145.61-33.25 144.58-32.2 142.93-32.2L142.93-32.2Q141.28-32.2 140.26-33.25 139.23-34.3 139.23-35.9L139.23-35.9Q139.23-37.55 140.26-38.6 141.28-39.65 142.93-39.65L142.93-39.65ZM150.43-26.45L166.68-26.45 166.68-22 156.13-4.85 166.88-4.85 166.33 0 149.53 0 149.53-4.45 160.08-21.6 150.43-21.6 150.43-26.45Z" opacity="1" transform="matrix(1,0,0,1,0,0)" fill="#000000" class="wordmark-text-0" data-fill-palette-color="primary"></path></svg></g><g><svg xmlns:sketch="http://www.bohemiancoding.com/sketch/ns" xmlns="http://www.w3.org/2000/svg" xmlns:xlink="http://www.w3.org/1999/xlink" version="1.1" x="282.72399999999993" y="0" viewBox="5.012124899939952 17.05 89.98787510006005 66" enable-background="new 0 0 100 100" xml:space="preserve" height="74.2662" width="101.25844742054666" class="icon-dxe-0" data-fill-palette-color="accent" id="dxe-0"><g sketch:type="MSPage" fill="#50a060" data-fill-palette-color="accent"><g sketch:type="MSArtboardGroup" fill="#50a060" data-fill-palette-color="accent"><path sketch:type="MSShapeGroup" d="M75.9 69.7L50.4 79.5 25.8 69.7V48C25.8 47.4 25.5 46.8 24.9 46.5L7.5 36.9 7.4 39.9 51.1 20.2H49.7L91.6 39.4V68.1C91.6 69 92.3 69.8 93.3 69.8 94.2 69.8 95 69.1 95 68.1V38.4C95 37.7 94.6 37.2 94 36.9L51.1 17.2C50.7 17 50.2 17 49.7 17.2L6 36.9C4.7 37.5 4.7 39.2 5.9 39.9L23.4 49.5 22.5 48V70.8C22.5 71.5 22.9 72.1 23.6 72.4L49.9 82.9C50.3 83.1 50.7 83.1 51.1 82.9L78.2 72.4C78.8 72.2 79.3 71.5 79.3 70.8V48C79.3 46.8 78.1 46 77 46.4L50.5 56.8 36.7 50.9C35.9 50.5 34.9 50.9 34.5 51.8S34.5 53.6 35.4 54L49.8 60.1C50.2 60.3 50.7 60.3 51.1 60.1L76 50.9" fill="#000000" data-fill-palette-color="accent"></path></g></g></svg></g></svg></g></svg></g></svg></g></svg></g><g></g></svg></g><defs></defs></svg><rect width="383.9824474205466" height="74.2662" fill="none" stroke="none" visibility="hidden"></rect></g></svg></g></svg>